<svg xmlns="http://www.w3.org/2000/svg" viewBox="0 0 168 168" fill="none">
  <circle cx="84" cy="84" r="84" fill="#1ED760"/>
  <path fill="#000" d="M121.5 114.7c-1.5 2.5-4.7 3.3-7.2 1.8-19.8-12.1-44.8-14.8-74.3-8.1-2.9.6-5.7-1.2-6.3-4.1-.6-2.9 1.2-5.7 4.1-6.3 32.3-7.4 60.5-4.3 82.9 9.2 2.5 1.6 3.3 4.8 1.8 7.5zM132 92.1c-1.8 2.9-5.6 3.9-8.5 2.1-22.7-14-57.4-18-84.3-9.9-3.3 1-6.8-.8-7.8-4.1s.8-6.8 4.1-7.8c31.8-9.3 70.3-4.7 96.4 11.4 2.9 1.9 3.8 5.7 2.1 8.3zM135.5 69.5c-27-16.2-71.8-17.7-97.3-9.7-4.1 1.2-8.4-1.1-9.6-5.2-1.2-4.1 1.1-8.4 5.2-9.6 30-8.9 79.8-7.2 111.6 11.3 3.7 2.1 4.9 6.8 2.8 10.4-2.1 3.8-6.8 5-10.4 2.8z"/>
</svg>
